<svg xmlns="http://www.w3.org/2000/svg" width="16.12" height="16.12" viewBox="0 0 16.12 16.12"><defs><style>.a{fill:none;}.b,.c{stroke:none;}.c{fill:#8b55e0;}</style></defs><g class="a"><path class="b" d="M8.06,0A8.06,8.06,0,1,1,0,8.06,8.06,8.06,0,0,1,8.06,0Z"/><path class="c" d="M 8.060000419616699 2 C 4.718500137329102 2 2 4.718500137329102 2 8.060000419616699 C 2 11.4015007019043 4.718500137329102 14.1200008392334 8.060000419616699 14.1200008392334 C 11.4015007019043 14.1200008392334 14.1200008392334 11.4015007019043 14.1200008392334 8.060000419616699 C 14.1200008392334 4.718500137329102 11.4015007019043 2 8.060000419616699 2 M 8.060000419616699 0 C 12.5114107131958 0 16.1200008392334 3.608580589294434 16.1200008392334 8.060000419616699 C 16.1200008392334 12.5114107131958 12.5114107131958 16.1200008392334 8.060000419616699 16.1200008392334 C 3.608580589294434 16.1200008392334 0 12.5114107131958 0 8.060000419616699 C 0 3.608580589294434 3.608580589294434 0 8.060000419616699 0 Z"/></g></svg>