<svg xmlns="http://www.w3.org/2000/svg" width="18.666" height="19.86" viewBox="0 0 18.666 19.86"><defs><style>.a{fill:#a093ac;}</style></defs><path class="a" d="M32.816,6.231a.828.828,0,0,0-1.17,0l-9.948,10a3.31,3.31,0,0,1-4.679-4.683L27.26,1.257a2.069,2.069,0,0,1,2.924,2.927L21.7,12.669l0,0A.827.827,0,0,1,20.53,11.5l4.1-4.1a.828.828,0,0,0-1.17-1.17l-4.1,4.1a2.482,2.482,0,0,0,3.511,3.51l0,0,8.481-8.481A3.724,3.724,0,0,0,26.088.088l-10.242,10.3A4.965,4.965,0,0,0,22.87,17.4l9.949-10A.828.828,0,0,0,32.816,6.231Z" transform="translate(-14.394 1.002)"/></svg>