<svg xmlns="http://www.w3.org/2000/svg" width="16.5" height="16.503" viewBox="0 0 16.5 16.503"><defs><style>.a{fill:#e8e1ee;}</style></defs><path class="a" d="M16.907,4.852a6.03,6.03,0,0,0-.384-2A4.228,4.228,0,0,0,14.108.435a6.046,6.046,0,0,0-2-.384C11.223.01,10.942,0,8.7,0S6.181.01,5.3.048a6.032,6.032,0,0,0-2,.384,4.027,4.027,0,0,0-1.464.954,4.063,4.063,0,0,0-.951,1.46,6.046,6.046,0,0,0-.384,2c-.042.883-.052,1.164-.052,3.4s.01,2.521.048,3.4a6.03,6.03,0,0,0,.384,2A4.227,4.227,0,0,0,3.3,16.071a6.047,6.047,0,0,0,2,.384c.88.039,1.161.048,3.4.048s2.521-.01,3.4-.048a6.029,6.029,0,0,0,2-.384,4.221,4.221,0,0,0,2.415-2.415,6.05,6.05,0,0,0,.384-2c.039-.88.048-1.161.048-3.4s0-2.521-.042-3.4ZM15.42,11.59a4.523,4.523,0,0,1-.284,1.531,2.738,2.738,0,0,1-1.567,1.567,4.539,4.539,0,0,1-1.531.284c-.87.039-1.132.048-3.333.048s-2.466-.01-3.334-.048a4.521,4.521,0,0,1-1.531-.284,2.539,2.539,0,0,1-.948-.616,2.566,2.566,0,0,1-.616-.948,4.54,4.54,0,0,1-.284-1.531c-.039-.87-.048-1.132-.048-3.334s.01-2.466.048-3.333a4.521,4.521,0,0,1,.284-1.531A2.508,2.508,0,0,1,2.9,2.447a2.562,2.562,0,0,1,.948-.616,4.543,4.543,0,0,1,1.531-.284c.87-.039,1.132-.048,3.333-.048s2.466.01,3.334.048a4.523,4.523,0,0,1,1.531.284,2.538,2.538,0,0,1,.948.616,2.565,2.565,0,0,1,.616.948,4.542,4.542,0,0,1,.284,1.531c.039.87.048,1.132.048,3.333s-.01,2.46-.048,3.33Zm0,0" transform="translate(-0.449 0)"/><path class="a" d="M129.182,124.5a4.233,4.233,0,1,0,4.233,4.233A4.234,4.234,0,0,0,129.182,124.5Zm0,6.979a2.746,2.746,0,1,1,2.746-2.746A2.746,2.746,0,0,1,129.182,131.479Zm0,0" transform="translate(-120.929 -120.48)"/><path class="a" d="M364.433,89.593a.991.991,0,1,1-.991-.991A.991.991,0,0,1,364.433,89.593Zm0,0" transform="translate(-350.782 -85.746)"/></svg>