<svg xmlns="http://www.w3.org/2000/svg" viewBox="0 0 112.47 23.99"><defs><style>.cls-1{fill:#b96aff;}</style></defs><g id="Layer_2" data-name="Layer 2"><g id="Layer_1-2" data-name="Layer 1"><path class="cls-1" d="M44.68,10.32a4.69,4.69,0,0,1-2,1.85,6.76,6.76,0,0,1-3.2.69H37.39v5.23H33.08V2.58h6.44a7,7,0,0,1,3.18.66,4.49,4.49,0,0,1,2,1.83,5.35,5.35,0,0,1,.66,2.68A5.09,5.09,0,0,1,44.68,10.32ZM40.93,7.75c0-1.13-.61-1.69-1.82-1.69H37.39V9.43h1.72C40.32,9.43,40.93,8.87,40.93,7.75Z"/><path class="cls-1" d="M46.18,8.57a5.25,5.25,0,0,1,1.89-2.2,4.87,4.87,0,0,1,2.67-.77,4.58,4.58,0,0,1,2.2.5,3.63,3.63,0,0,1,1.43,1.37V5.75h4.32V18.09H54.37V16.38a3.51,3.51,0,0,1-1.44,1.36,4.49,4.49,0,0,1-2.19.51,4.87,4.87,0,0,1-2.67-.77,5.28,5.28,0,0,1-1.89-2.21,7.7,7.7,0,0,1-.69-3.36A7.6,7.6,0,0,1,46.18,8.57ZM53.72,10a2.23,2.23,0,0,0-3.2,0,2.65,2.65,0,0,0-.63,1.88,2.69,2.69,0,0,0,.63,1.88,2.19,2.19,0,0,0,3.2,0,2.58,2.58,0,0,0,.65-1.89A2.58,2.58,0,0,0,53.72,10Z"/><path class="cls-1" d="M66.45,6.1a4.56,4.56,0,0,1,2.18-.5,4.87,4.87,0,0,1,2.67.77,5.25,5.25,0,0,1,1.89,2.2,7.47,7.47,0,0,1,.7,3.34,7.56,7.56,0,0,1-.7,3.36,5.28,5.28,0,0,1-1.89,2.21,4.87,4.87,0,0,1-2.67.77,4.38,4.38,0,0,1-2.17-.51A3.77,3.77,0,0,1,65,16.38V24H60.71V5.75H65V7.47A3.7,3.7,0,0,1,66.45,6.1ZM68.86,10a2.22,2.22,0,0,0-3.19,0A2.63,2.63,0,0,0,65,11.91a2.63,2.63,0,0,0,.65,1.89,2.1,2.1,0,0,0,1.6.69,2.07,2.07,0,0,0,1.59-.7,2.65,2.65,0,0,0,.65-1.88A2.62,2.62,0,0,0,68.86,10Z"/><path class="cls-1" d="M87.83,12.79H79.67a2.3,2.3,0,0,0,.56,1.51,1.73,1.73,0,0,0,1.27.49,1.59,1.59,0,0,0,1.54-1h4.6a5.31,5.31,0,0,1-1.11,2.27,5.87,5.87,0,0,1-2.08,1.58,6.64,6.64,0,0,1-2.78.57,6.74,6.74,0,0,1-3.24-.77,5.53,5.53,0,0,1-2.22-2.2,6.72,6.72,0,0,1-.8-3.37,6.72,6.72,0,0,1,.79-3.35,5.42,5.42,0,0,1,2.21-2.19,7.33,7.33,0,0,1,6.5,0,5.4,5.4,0,0,1,2.2,2.14,6.54,6.54,0,0,1,.79,3.29A6.77,6.77,0,0,1,87.83,12.79ZM83.5,10.7A1.52,1.52,0,0,0,83,9.46,2,2,0,0,0,81.65,9a1.88,1.88,0,0,0-1.29.43,2.05,2.05,0,0,0-.66,1.26Z"/><path class="cls-1" d="M95.73,6.26A4.29,4.29,0,0,1,98,5.64v4.6H96.75a3.26,3.26,0,0,0-2.09.55A2.31,2.31,0,0,0,94,12.7v5.39H89.66V5.75H94V7.93A5.7,5.7,0,0,1,95.73,6.26Z"/><path class="cls-1" d="M107.63,18.09,105.41,15l-1.76,3.1H98.92l4.12-6.4L98.75,5.75h4.84l2.22,3.1,1.78-3.1h4.73L108.12,12l4.35,6.05Z"/><path class="cls-1" d="M20.16,20.55,0,20.32,8.2.1,27.86,0ZM5.91,16.39l11.49.13L22.08,4,10.9,4.09Z"/></g></g></svg>