<svg xmlns="http://www.w3.org/2000/svg" viewBox="0 0 162.29 27.99"><defs><style>.cls-1{fill:#370b5e;}</style></defs><g id="Layer_2" data-name="Layer 2"><g id="Layer_1-2" data-name="Layer 1"><path class="cls-1" d="M13,5.81a6.52,6.52,0,0,0-3.48-1,5.81,5.81,0,0,0-2.86.67A5.09,5.09,0,0,0,4.76,7.26V5.06H0V28H4.76V18.42a5.22,5.22,0,0,0,1.93,1.72,5.88,5.88,0,0,0,2.85.67,6.36,6.36,0,0,0,3.48-1A6.77,6.77,0,0,0,15.48,17a9.38,9.38,0,0,0,.91-4.21,9.28,9.28,0,0,0-.91-4.2A6.71,6.71,0,0,0,13,5.81Zm-2.48,9.81a3.19,3.19,0,0,1-2.42,1,3.19,3.19,0,0,1-2.4-1,3.87,3.87,0,0,1-1-2.81,3.9,3.9,0,0,1,1-2.81,3.22,3.22,0,0,1,2.4-1,3.25,3.25,0,0,1,2.44,1,3.84,3.84,0,0,1,1,2.8A3.91,3.91,0,0,1,10.54,15.62Z"/><path class="cls-1" d="M29.77,7.26a5,5,0,0,0-1.91-1.75A5.92,5.92,0,0,0,25,4.84a6.52,6.52,0,0,0-3.48,1A6.71,6.71,0,0,0,19,8.6a9.28,9.28,0,0,0-.9,4.2A9.38,9.38,0,0,0,19,17a6.77,6.77,0,0,0,2.46,2.81,6.31,6.31,0,0,0,3.45,1,5.89,5.89,0,0,0,2.88-.67,5.15,5.15,0,0,0,1.94-1.75v2.2h4.75V5.06H29.77Zm-1,8.37a3.2,3.2,0,0,1-2.41,1,3.15,3.15,0,0,1-2.4-1,3.94,3.94,0,0,1-1-2.82A3.84,3.84,0,0,1,24,10a3.36,3.36,0,0,1,4.81,0,3.9,3.9,0,0,1,1,2.81A3.87,3.87,0,0,1,28.78,15.63Z"/><path class="cls-1" d="M50.63,5.81a6.52,6.52,0,0,0-3.48-1,5.81,5.81,0,0,0-2.86.67,5.09,5.09,0,0,0-1.92,1.75V5.06H37.61V28h4.76V18.42a5.22,5.22,0,0,0,1.93,1.72,5.88,5.88,0,0,0,2.85.67,6.36,6.36,0,0,0,3.48-1A6.77,6.77,0,0,0,53.09,17,9.38,9.38,0,0,0,54,12.8a9.28,9.28,0,0,0-.91-4.2A6.71,6.71,0,0,0,50.63,5.81Zm-2.48,9.81a3.32,3.32,0,0,1-4.82,0,3.87,3.87,0,0,1-1-2.81,3.9,3.9,0,0,1,1-2.81,3.39,3.39,0,0,1,4.84,0,3.84,3.84,0,0,1,1,2.8A3.91,3.91,0,0,1,48.15,15.62Z"/><path class="cls-1" d="M67.6,5.79a8.34,8.34,0,0,0-4-1,8.49,8.49,0,0,0-4.09,1A6.81,6.81,0,0,0,56.74,8.6a8.63,8.63,0,0,0-1,4.22,8.54,8.54,0,0,0,1,4.23,6.83,6.83,0,0,0,2.78,2.78,8.32,8.32,0,0,0,4.06,1,8.08,8.08,0,0,0,3.42-.7,7,7,0,0,0,2.55-1.92A6.72,6.72,0,0,0,71,15.44H65.9a2.5,2.5,0,0,1-2.47,1.5,2.85,2.85,0,0,1-2-.76A3.21,3.21,0,0,1,60.48,14H71.24a11.17,11.17,0,0,0,.09-1.39,8.2,8.2,0,0,0-1-4.09A6.82,6.82,0,0,0,67.6,5.79Zm-7.1,5.53a3.07,3.07,0,0,1,1-2,3.3,3.3,0,0,1,4.1,0,2.43,2.43,0,0,1,.84,1.94Z"/><path class="cls-1" d="M78.22,7.65V5.06H73.47V20.59h4.75V13.38a3.37,3.37,0,0,1,.9-2.68,4,4,0,0,1,2.67-.77h1.3v-5a5.4,5.4,0,0,0-2.78.73A6.39,6.39,0,0,0,78.22,7.65Z"/><path class="cls-1" d="M94.47,4.9a6.27,6.27,0,0,0-2.75.59,5.05,5.05,0,0,0-2,1.63V5.06H85V20.59h4.76V12.16a3.39,3.39,0,0,1,.81-2.42,3.14,3.14,0,0,1,4.34,0,3.43,3.43,0,0,1,.8,2.42v8.43h4.73V11.52a6.93,6.93,0,0,0-1.62-4.86A5.67,5.67,0,0,0,94.47,4.9Z"/><path class="cls-1" d="M114.31,5.79a8.34,8.34,0,0,0-4-1,8.49,8.49,0,0,0-4.09,1,6.83,6.83,0,0,0-2.77,2.79,8.63,8.63,0,0,0-1,4.22,8.54,8.54,0,0,0,1,4.23,6.77,6.77,0,0,0,2.78,2.78,8.3,8.3,0,0,0,4.06,1,8.08,8.08,0,0,0,3.42-.7,7,7,0,0,0,4-4.67h-5.06a2.51,2.51,0,0,1-2.48,1.5,2.81,2.81,0,0,1-2-.76,3.26,3.26,0,0,1-.94-2.22H118a11.11,11.11,0,0,0,.08-1.39,8.3,8.3,0,0,0-1-4.09A6.88,6.88,0,0,0,114.31,5.79Zm-7.1,5.53a3.07,3.07,0,0,1,1-2,3,3,0,0,1,2-.7,3,3,0,0,1,2.09.73,2.43,2.43,0,0,1,.84,1.94Z"/><path class="cls-1" d="M124.93,7.65V5.06h-4.75V20.59h4.75V13.38a3.4,3.4,0,0,1,.89-2.68,4,4,0,0,1,2.67-.77h1.31v-5a5.37,5.37,0,0,0-2.78.73A6.29,6.29,0,0,0,124.93,7.65Z"/><path class="cls-1" d="M142.4,7.21a5,5,0,0,0-2-1.73,6,6,0,0,0-2.79-.64,6.52,6.52,0,0,0-3.48,1,6.71,6.71,0,0,0-2.46,2.79,9.28,9.28,0,0,0-.91,4.2,9.38,9.38,0,0,0,.91,4.21,6.77,6.77,0,0,0,2.46,2.81,6.36,6.36,0,0,0,3.48,1,6,6,0,0,0,2.88-.67,4.81,4.81,0,0,0,1.9-1.78v2.23h4.76V0H142.4Zm-1,8.42a3.21,3.21,0,0,1-2.41,1,3.17,3.17,0,0,1-2.41-1,3.94,3.94,0,0,1-1-2.82,3.84,3.84,0,0,1,1-2.8,3.37,3.37,0,0,1,4.82,0,3.94,3.94,0,0,1,1,2.81A3.91,3.91,0,0,1,141.42,15.63Z"/><path class="cls-1" d="M161.44,13.51a4.73,4.73,0,0,0-1.9-1.39,24,24,0,0,0-2.81-.88,11.28,11.28,0,0,1-2.21-.67,1.06,1.06,0,0,1-.71-1,1,1,0,0,1,.44-.88,2.22,2.22,0,0,1,1.28-.32,2.41,2.41,0,0,1,1.57.48,1.86,1.86,0,0,1,.71,1.28h4.4a5.63,5.63,0,0,0-1.93-3.84,6.83,6.83,0,0,0-4.61-1.45,8.27,8.27,0,0,0-3.41.64,5,5,0,0,0-2.17,1.74,4.26,4.26,0,0,0-.73,2.43,3.7,3.7,0,0,0,.8,2.52,4.77,4.77,0,0,0,1.92,1.36,19.24,19.24,0,0,0,2.79.82,14.91,14.91,0,0,1,2.25.71,1.06,1.06,0,0,1,.69,1,1.09,1.09,0,0,1-.48.91,2.39,2.39,0,0,1-1.38.34,2.6,2.6,0,0,1-1.64-.5,1.77,1.77,0,0,1-.75-1.3h-4.7a4.93,4.93,0,0,0,1,2.71,6.15,6.15,0,0,0,2.5,1.9,8.82,8.82,0,0,0,3.62.7,8.55,8.55,0,0,0,3.32-.61,5,5,0,0,0,2.2-1.69,4.06,4.06,0,0,0,.76-2.43A3.91,3.91,0,0,0,161.44,13.51Z"/></g></g></svg>