<svg xmlns="http://www.w3.org/2000/svg" viewBox="0 0 132.53 22.18"><defs><style>.cls-1{fill:#A093AC;}</style></defs><g id="Layer_2" data-name="Layer 2"><g id="Layer_1-2" data-name="Layer 1"><path class="cls-1" d="M5.74,4.29a4.45,4.45,0,0,1,2.18-.51,4.87,4.87,0,0,1,2.67.77,5.31,5.31,0,0,1,1.89,2.2,7.51,7.51,0,0,1,.7,3.35,7.54,7.54,0,0,1-.7,3.35,5.22,5.22,0,0,1-1.89,2.21,4.79,4.79,0,0,1-2.67.77,4.49,4.49,0,0,1-2.17-.5,3.8,3.8,0,0,1-1.44-1.37v7.62H0V3.94H4.31V5.65A3.75,3.75,0,0,1,5.74,4.29ZM8.15,8.22a2.11,2.11,0,0,0-1.59-.67A2.1,2.1,0,0,0,5,8.23a2.61,2.61,0,0,0-.65,1.87A2.64,2.64,0,0,0,5,12a2.14,2.14,0,0,0,1.6.68A2.09,2.09,0,0,0,8.15,12,2.65,2.65,0,0,0,8.8,10.1,2.59,2.59,0,0,0,8.15,8.22Z"/><path class="cls-1" d="M15.39,6.75a5.31,5.31,0,0,1,1.89-2.2A4.87,4.87,0,0,1,20,3.78a4.47,4.47,0,0,1,2.2.51,3.61,3.61,0,0,1,1.43,1.36V3.94H27.9V16.28H23.58V14.56a3.53,3.53,0,0,1-1.44,1.37,4.6,4.6,0,0,1-2.19.5,4.79,4.79,0,0,1-2.67-.77,5.22,5.22,0,0,1-1.89-2.21,7.68,7.68,0,0,1-.69-3.35A7.65,7.65,0,0,1,15.39,6.75Zm7.55,1.48a2.25,2.25,0,0,0-3.21,0,2.62,2.62,0,0,0-.63,1.88A2.69,2.69,0,0,0,19.73,12a2.1,2.1,0,0,0,1.61.69,2.15,2.15,0,0,0,1.6-.68,2.64,2.64,0,0,0,.64-1.89A2.6,2.6,0,0,0,22.94,8.23Z"/><path class="cls-1" d="M36.1,4.29a4.45,4.45,0,0,1,2.18-.51A4.87,4.87,0,0,1,41,4.55a5.31,5.31,0,0,1,1.89,2.2,7.51,7.51,0,0,1,.7,3.35,7.54,7.54,0,0,1-.7,3.35A5.22,5.22,0,0,1,41,15.66a4.79,4.79,0,0,1-2.67.77,4.49,4.49,0,0,1-2.17-.5,3.8,3.8,0,0,1-1.44-1.37v7.62H30.36V3.94h4.31V5.65A3.75,3.75,0,0,1,36.1,4.29Zm2.41,3.93a2.22,2.22,0,0,0-3.19,0,2.61,2.61,0,0,0-.65,1.87A2.64,2.64,0,0,0,35.32,12a2.12,2.12,0,0,0,1.6.68A2.09,2.09,0,0,0,38.51,12a2.65,2.65,0,0,0,.65-1.88A2.59,2.59,0,0,0,38.51,8.22Z"/><path class="cls-1" d="M57.48,11H49.32a2.29,2.29,0,0,0,.56,1.5,1.73,1.73,0,0,0,1.27.5,1.58,1.58,0,0,0,1.54-1h4.6a5.4,5.4,0,0,1-1.11,2.28,5.73,5.73,0,0,1-2.08,1.57,7.14,7.14,0,0,1-6-.2,5.41,5.41,0,0,1-2.22-2.2,6.68,6.68,0,0,1-.8-3.36,6.79,6.79,0,0,1,.79-3.36,5.54,5.54,0,0,1,2.21-2.19,7.33,7.33,0,0,1,6.5,0,5.42,5.42,0,0,1,2.2,2.15A6.51,6.51,0,0,1,57.55,10,7,7,0,0,1,57.48,11ZM53.15,8.89a1.55,1.55,0,0,0-.53-1.25,2,2,0,0,0-1.32-.45A1.93,1.93,0,0,0,50,7.62a2.08,2.08,0,0,0-.66,1.27Z"/><path class="cls-1" d="M65.38,4.44a4.27,4.27,0,0,1,2.22-.61v4.6H66.4A3.26,3.26,0,0,0,64.31,9a2.3,2.3,0,0,0-.69,1.91v5.39H59.31V3.94h4.31V6.12A5.62,5.62,0,0,1,65.38,4.44Z"/><path class="cls-1" d="M80.61,5.25a5.6,5.6,0,0,1,1.25,3.84v7.19H77.55V9.66A2.34,2.34,0,0,0,77,8a1.89,1.89,0,0,0-1.48-.61A1.91,1.91,0,0,0,74,8a2.34,2.34,0,0,0-.55,1.66v6.62H69.15V3.94h4.31V5.7A4.25,4.25,0,0,1,75,4.34a4.66,4.66,0,0,1,2.22-.51A4.29,4.29,0,0,1,80.61,5.25Z"/><path class="cls-1" d="M96,11H87.8a2.24,2.24,0,0,0,.56,1.5,1.72,1.72,0,0,0,1.27.5,1.58,1.58,0,0,0,1.54-1h4.59a5.4,5.4,0,0,1-1.11,2.28,5.65,5.65,0,0,1-2.08,1.57,7.12,7.12,0,0,1-6-.2,5.41,5.41,0,0,1-2.22-2.2,6.69,6.69,0,0,1-.81-3.36,6.9,6.9,0,0,1,.79-3.36,5.57,5.57,0,0,1,2.22-2.19,7.33,7.33,0,0,1,6.5,0,5.42,5.42,0,0,1,2.2,2.15A6.62,6.62,0,0,1,96,10,7,7,0,0,1,96,11ZM91.63,8.89a1.58,1.58,0,0,0-.53-1.25,2.17,2.17,0,0,0-2.62,0,2.19,2.19,0,0,0-.66,1.27Z"/><path class="cls-1" d="M103.86,4.44a4.27,4.27,0,0,1,2.22-.61v4.6h-1.21a3.28,3.28,0,0,0-2.09.55,2.33,2.33,0,0,0-.68,1.91v5.39H97.79V3.94h4.31V6.12A5.52,5.52,0,0,1,103.86,4.44Z"/><path class="cls-1" d="M107.61,6.75a5.33,5.33,0,0,1,1.9-2.2,5,5,0,0,1,2.69-.77,4.45,4.45,0,0,1,2.12.5,3.73,3.73,0,0,1,1.46,1.35V0h4.34V16.28h-4.34V14.56a3.57,3.57,0,0,1-1.43,1.37,4.52,4.52,0,0,1-2.17.5,4.8,4.8,0,0,1-2.68-.77,5.22,5.22,0,0,1-1.89-2.21,7.68,7.68,0,0,1-.69-3.35A7.65,7.65,0,0,1,107.61,6.75Zm7.55,1.48a2.23,2.23,0,0,0-3.2,0,2.58,2.58,0,0,0-.64,1.88A2.65,2.65,0,0,0,112,12a2.08,2.08,0,0,0,1.6.69,2.15,2.15,0,0,0,1.6-.68,2.64,2.64,0,0,0,.65-1.89A2.61,2.61,0,0,0,115.16,8.23Z"/><path class="cls-1" d="M124.42,15.87a5,5,0,0,1-2.07-1.54,4.05,4.05,0,0,1-.85-2.21h4.18a1.36,1.36,0,0,0,.55.93,1.93,1.93,0,0,0,1.15.33,1.43,1.43,0,0,0,.83-.22.68.68,0,0,0,.31-.58.73.73,0,0,0-.5-.68,9.69,9.69,0,0,0-1.68-.48,15,15,0,0,1-2.2-.6,3.81,3.81,0,0,1-1.52-1.07,3,3,0,0,1-.65-2,3.47,3.47,0,0,1,.59-2,4.11,4.11,0,0,1,1.75-1.42,6.69,6.69,0,0,1,2.78-.53A5.68,5.68,0,0,1,130.9,5a4.62,4.62,0,0,1,1.6,3.13h-3.89a1.46,1.46,0,0,0-.52-.92A1.72,1.72,0,0,0,127,6.86a1.37,1.37,0,0,0-.8.2.65.65,0,0,0-.27.55.72.72,0,0,0,.5.67,8.8,8.8,0,0,0,1.63.48,14.81,14.81,0,0,1,2.23.63,3.94,3.94,0,0,1,1.56,1.14,3.12,3.12,0,0,1,.68,2.12,3.22,3.22,0,0,1-.63,1.94,4.2,4.2,0,0,1-1.78,1.35,6.88,6.88,0,0,1-2.72.49A7.4,7.4,0,0,1,124.42,15.87Z"/></g></g></svg>