<svg xmlns="http://www.w3.org/2000/svg" width="20.308" height="16.5" viewBox="0 0 20.308 16.5"><defs><style>.a{fill:#e8e1ee;}</style></defs><g transform="translate(0 0)"><path class="a" d="M20.308,49.953a8.68,8.68,0,0,1-2.4.657,4.14,4.14,0,0,0,1.831-2.3,8.32,8.32,0,0,1-2.64,1.008,4.163,4.163,0,0,0-7.2,2.847,4.287,4.287,0,0,0,.1.949,11.784,11.784,0,0,1-8.581-4.355,4.164,4.164,0,0,0,1.279,5.564,4.111,4.111,0,0,1-1.881-.513v.046a4.182,4.182,0,0,0,3.336,4.091,4.155,4.155,0,0,1-1.092.137,3.681,3.681,0,0,1-.788-.071,4.2,4.2,0,0,0,3.89,2.9A8.365,8.365,0,0,1,1,62.689a7.8,7.8,0,0,1-1-.057A11.721,11.721,0,0,0,6.387,64.5a11.768,11.768,0,0,0,11.85-11.847c0-.184-.006-.362-.015-.538A8.305,8.305,0,0,0,20.308,49.953Z" transform="translate(0 -48)"/></g></svg>